<svg xmlns="http://www.w3.org/2000/svg" version="1.1" width="3182px" height="476px" style="shape-rendering:geometricPrecision; text-rendering:geometricPrecision; image-rendering:optimizeQuality; fill-rule:evenodd; clip-rule:evenodd" xmlns:xlink="http://www.w3.org/1999/xlink">
<g><path style="opacity:0.756" fill="#353637" d="M 225.5,-0.5 C 234.5,-0.5 243.5,-0.5 252.5,-0.5C 252.5,8.5 252.5,17.5 252.5,26.5C 243.5,26.5 234.5,26.5 225.5,26.5C 225.5,17.5 225.5,8.5 225.5,-0.5 Z"/></g>
<g><path style="opacity:0.966" fill="#e8e8e8" d="M 221.5,-0.5 C 221.833,-0.5 222.167,-0.5 222.5,-0.5C 222.5,8.83333 222.5,18.1667 222.5,27.5C 141.602,36.271 83.1025,76.9377 47,149.5C 36.585,172.409 30.4183,196.409 28.5,221.5C 19.5,221.5 10.5,221.5 1.5,221.5C 10.7729,128.105 57.4396,60.9378 141.5,20C 167.199,8.90004 193.866,2.06671 221.5,-0.5 Z"/></g>
<g><path style="opacity:0.968" fill="#e8e8e8" d="M 254.5,-0.5 C 255.167,-0.5 255.833,-0.5 256.5,-0.5C 347.508,10.042 413.675,56.042 455,137.5C 466.705,163.987 473.872,191.654 476.5,220.5C 467.19,221.498 457.857,221.832 448.5,221.5C 439.961,140.877 399.628,82.3766 327.5,46C 304.318,35.2879 279.985,29.1213 254.5,27.5C 254.5,18.1667 254.5,8.83333 254.5,-0.5 Z"/></g>
<g><path style="opacity:1" fill="#0097d9" d="M 228.5,2.5 C 235.5,2.5 242.5,2.5 249.5,2.5C 249.5,9.16667 249.5,15.8333 249.5,22.5C 242.5,22.5 235.5,22.5 228.5,22.5C 228.5,15.8333 228.5,9.16667 228.5,2.5 Z"/></g>
<g><path style="opacity:1" fill="#187199" d="M 228.5,2.5 C 228.5,9.16667 228.5,15.8333 228.5,22.5C 235.5,22.5 242.5,22.5 249.5,22.5C 242.352,23.4916 235.019,23.825 227.5,23.5C 227.175,16.3134 227.509,9.31337 228.5,2.5 Z"/></g>
<g><path style="opacity:0.99" fill="#e8e8e8" d="M 712.5,57.5 C 760.185,54.1243 803.519,65.9576 842.5,93C 876.793,120.731 897.293,156.564 904,200.5C 911.569,249.665 901.902,294.998 875,336.5C 847.446,372.21 811.28,394.044 766.5,402C 716.213,410.914 668.88,402.914 624.5,378C 583.099,350.534 558.599,312.034 551,262.5C 542.739,209.431 554.405,161.431 586,118.5C 609.201,91.0054 638.368,72.8387 673.5,64C 686.5,60.9445 699.5,58.7778 712.5,57.5 Z M 717.5,125.5 C 758.598,122.804 790.765,138.138 814,171.5C 834.666,211.503 834.666,251.503 814,291.5C 793.394,321.891 764.56,337.225 727.5,337.5C 678.228,335.97 645.728,311.97 630,265.5C 620.048,227.944 626.048,193.277 648,161.5C 666.454,140.357 689.621,128.357 717.5,125.5 Z"/></g>
<g><path style="opacity:0.978" fill="#e8e8e8" d="M 1486.5,64.5 C 1521.61,62.288 1554.61,69.4547 1585.5,86C 1598.76,94.2645 1609.59,104.765 1618,117.5C 1606.66,125.515 1595.32,133.515 1584,141.5C 1555.43,108.307 1519.43,95.9736 1476,104.5C 1435.47,115.027 1406.47,139.361 1389,177.5C 1370.86,221.231 1371.86,264.564 1392,307.5C 1419.42,356.3 1461.26,378.467 1517.5,374C 1550.21,369.564 1576.71,354.398 1597,328.5C 1606.85,337.023 1616.69,345.523 1626.5,354C 1609.54,378.269 1586.88,394.935 1558.5,404C 1497.89,422.008 1442.56,412.008 1392.5,374C 1347.17,331.688 1327.67,279.522 1334,217.5C 1343.4,144.123 1382.9,95.2899 1452.5,71C 1463.83,68.0594 1475.16,65.8928 1486.5,64.5 Z"/></g>
<g><path style="opacity:0.98" fill="#e8e8e8" d="M 1818.5,64.5 C 1879.48,60.3081 1929.98,80.9748 1970,126.5C 2005.75,176.659 2015.75,231.659 2000,291.5C 1977.17,360.655 1929.67,400.488 1857.5,411C 1794.15,418.338 1741.31,398.504 1699,351.5C 1668.93,311.885 1656.59,267.218 1662,217.5C 1670.99,144.522 1710.16,96.0217 1779.5,72C 1792.44,68.4033 1805.44,65.9033 1818.5,64.5 Z M 1829.5,101.5 C 1889.87,102.743 1931.71,131.076 1955,186.5C 1972.54,239.185 1964.54,287.518 1931,331.5C 1896.69,368.205 1854.85,381.705 1805.5,372C 1749.78,356.611 1716.61,320.444 1706,263.5C 1697.77,208.498 1714.61,162.998 1756.5,127C 1778.36,111.213 1802.7,102.713 1829.5,101.5 Z"/></g>
<g><path style="opacity:0.98" fill="#e8e8e8" d="M 3044.5,64.5 C 3083.01,62.0321 3119.01,70.1988 3152.5,89C 3160.75,94.5785 3168.42,100.912 3175.5,108C 3165.65,118.678 3155.65,129.178 3145.5,139.5C 3113.19,108.665 3074.86,96.832 3030.5,104C 2972.03,117.468 2936.87,153.635 2925,212.5C 2918.2,254.866 2927.54,293.199 2953,327.5C 2972.97,350.91 2998.14,365.743 3028.5,372C 3066.97,378.386 3103.97,373.219 3139.5,356.5C 3140.5,322.84 3140.83,289.173 3140.5,255.5C 3115.17,255.5 3089.83,255.5 3064.5,255.5C 3064.5,243.167 3064.5,230.833 3064.5,218.5C 3103.17,218.5 3141.83,218.5 3180.5,218.5C 3180.67,272.834 3180.5,327.168 3180,381.5C 3142.41,402.147 3102.08,412.481 3059,412.5C 3005.03,413.524 2959.36,394.858 2922,356.5C 2888.97,316.096 2875.31,269.762 2881,217.5C 2889.58,151.261 2924.42,104.761 2985.5,78C 3004.69,70.7818 3024.36,66.2818 3044.5,64.5 Z"/></g>
<g><path style="opacity:0.985" fill="#e8e8e8" d="M 954.5,65.5 C 987.835,65.3333 1021.17,65.5 1054.5,66C 1101.13,142.083 1147.63,218.25 1194,294.5C 1194.5,218.167 1194.67,141.834 1194.5,65.5C 1219.17,65.5 1243.83,65.5 1268.5,65.5C 1268.5,175.833 1268.5,286.167 1268.5,396.5C 1236.16,396.833 1203.83,396.5 1171.5,395.5C 1124.25,318 1076.75,240.666 1029,163.5C 1028.5,241.166 1028.33,318.833 1028.5,396.5C 1003.83,396.5 979.167,396.5 954.5,396.5C 954.5,286.167 954.5,175.833 954.5,65.5 Z"/></g>
<g><path style="opacity:0.971" fill="#e8e8e8" d="M 2062.5,72.5 C 2111.52,72.0594 2160.52,72.5594 2209.5,74C 2261.33,80.4757 2301.5,105.309 2330,148.5C 2352.31,190.906 2358.31,235.572 2348,282.5C 2332.99,341.182 2296.49,379.348 2238.5,397C 2228.34,399.899 2218.01,401.899 2207.5,403C 2159.17,403.5 2110.83,403.667 2062.5,403.5C 2062.5,293.167 2062.5,182.833 2062.5,72.5 Z M 2103.5,110.5 C 2137.19,110.073 2170.86,110.573 2204.5,112C 2260.47,119.975 2294.64,151.475 2307,206.5C 2312.45,237.597 2309.78,267.931 2299,297.5C 2279.56,337.832 2247.39,360.332 2202.5,365C 2169.52,366.425 2136.52,366.925 2103.5,366.5C 2103.5,281.167 2103.5,195.833 2103.5,110.5 Z"/></g>
<g><path style="opacity:0.977" fill="#e8e8e8" d="M 2415.5,72.5 C 2428.83,72.5 2442.17,72.5 2455.5,72.5C 2455.5,182.833 2455.5,293.167 2455.5,403.5C 2442.17,403.5 2428.83,403.5 2415.5,403.5C 2415.5,293.167 2415.5,182.833 2415.5,72.5 Z"/></g>
<g><path style="opacity:0.98" fill="#e8e8e8" d="M 2536.5,72.5 C 2553.41,72.1749 2570.24,72.5082 2587,73.5C 2650.58,164.325 2713.91,255.325 2777,346.5C 2777.5,255.167 2777.67,163.834 2777.5,72.5C 2790.83,72.5 2804.17,72.5 2817.5,72.5C 2817.5,182.833 2817.5,293.167 2817.5,403.5C 2800.49,403.833 2783.49,403.499 2766.5,402.5C 2703.09,312.008 2639.92,221.341 2577,130.5C 2576.5,221.499 2576.33,312.499 2576.5,403.5C 2563.17,403.5 2549.83,403.5 2536.5,403.5C 2536.5,293.167 2536.5,182.833 2536.5,72.5 Z"/></g>
<g><path style="opacity:0.966" fill="#e8e8e8" d="M 254.5,138.5 C 263.546,140.736 272.213,143.736 280.5,147.5C 258.902,203.127 237.402,258.794 216,314.5C 215.586,314.957 215.086,315.291 214.5,315.5C 206.599,312.754 198.599,310.421 190.5,308.5C 211.637,251.756 232.97,195.089 254.5,138.5 Z"/></g>
<g><path style="opacity:0.969" fill="#e8e8e8" d="M 171.5,181.5 C 172.5,181.5 173.5,181.5 174.5,181.5C 174.819,191.749 174.486,201.916 173.5,212C 151.245,220.863 128.912,229.529 106.5,238C 128.873,246.735 151.206,255.569 173.5,264.5C 174.499,274.478 174.832,284.478 174.5,294.5C 138.045,280.903 101.712,266.903 65.5,252.5C 64.1667,242.833 64.1667,233.167 65.5,223.5C 101.146,210 136.48,196 171.5,181.5 Z"/></g>
<g><path style="opacity:0.972" fill="#e8e8e8" d="M 296.5,181.5 C 333.167,195.5 369.833,209.5 406.5,223.5C 406.832,233.19 406.498,242.856 405.5,252.5C 369.288,266.903 332.955,280.903 296.5,294.5C 296.181,284.251 296.514,274.084 297.5,264C 319.658,255.725 341.658,247.059 363.5,238C 341.5,229.333 319.5,220.667 297.5,212C 296.514,201.916 296.181,191.749 296.5,181.5 Z"/></g>
<g><path style="opacity:0.752" fill="#353735" d="M 449.5,223.5 C 458.5,223.5 467.5,223.5 476.5,223.5C 476.5,232.5 476.5,241.5 476.5,250.5C 467.5,250.5 458.5,250.5 449.5,250.5C 449.5,241.5 449.5,232.5 449.5,223.5 Z"/></g>
<g><path style="opacity:0.837" fill="#3e3434" d="M -0.5,223.5 C 8.5,223.5 17.5,223.5 26.5,223.5C 26.5,232.5 26.5,241.5 26.5,250.5C 17.5,250.5 8.5,250.5 -0.5,250.5C -0.5,241.5 -0.5,232.5 -0.5,223.5 Z"/></g>
<g><path style="opacity:1" fill="#eb3337" d="M 2.5,226.5 C 9.5,226.5 16.5,226.5 23.5,226.5C 23.5,233.5 23.5,240.5 23.5,247.5C 16.5,247.5 9.5,247.5 2.5,247.5C 2.5,240.5 2.5,233.5 2.5,226.5 Z"/></g>
<g><path style="opacity:1" fill="#00a759" d="M 452.5,226.5 C 459.5,226.5 466.5,226.5 473.5,226.5C 473.5,233.5 473.5,240.5 473.5,247.5C 466.5,247.5 459.5,247.5 452.5,247.5C 452.5,240.5 452.5,233.5 452.5,226.5 Z"/></g>
<g><path style="opacity:0.969" fill="#e8e8e8" d="M 1.5,253.5 C 10.5,253.5 19.5,253.5 28.5,253.5C 37.4378,333.261 77.4378,391.428 148.5,428C 172.008,438.877 196.674,445.377 222.5,447.5C 222.5,456.5 222.5,465.5 222.5,474.5C 131.096,465.199 64.5963,419.865 23,338.5C 10.6619,311.481 3.49522,283.148 1.5,253.5 Z"/></g>
<g><path style="opacity:0.967" fill="#e8e8e8" d="M 448.5,253.5 C 457.839,253.334 467.173,253.5 476.5,254C 465.041,353.764 413.041,422.764 320.5,461C 299.083,468.383 277.083,472.883 254.5,474.5C 254.5,465.5 254.5,456.5 254.5,447.5C 336.975,438.038 396.142,396.038 432,321.5C 441.506,299.801 447.006,277.135 448.5,253.5 Z"/></g>
<g><path style="opacity:0.841" fill="#3d3a34" d="M 252.5,475.5 C 243.5,475.5 234.5,475.5 225.5,475.5C 225.5,466.833 225.5,458.167 225.5,449.5C 234.5,449.5 243.5,449.5 252.5,449.5C 252.5,458.167 252.5,466.833 252.5,475.5 Z"/></g>
<g><path style="opacity:1" fill="#918a27" d="M 249.5,452.5 C 242.5,452.5 235.5,452.5 228.5,452.5C 228.5,459.167 228.5,465.833 228.5,472.5C 227.509,465.687 227.175,458.687 227.5,451.5C 235.019,451.175 242.352,451.508 249.5,452.5 Z"/></g>
<g><path style="opacity:1" fill="#fdf015" d="M 249.5,452.5 C 249.5,459.167 249.5,465.833 249.5,472.5C 242.5,472.5 235.5,472.5 228.5,472.5C 228.5,465.833 228.5,459.167 228.5,452.5C 235.5,452.5 242.5,452.5 249.5,452.5 Z"/></g>
</svg>
